<?xml version="1.0" standalone="no"?>
<!DOCTYPE svg PUBLIC "-//W3C//DTD SVG 20010904//EN"
 "http://www.w3.org/TR/2001/REC-SVG-20010904/DTD/svg10.dtd">
<svg version="1.0" xmlns="http://www.w3.org/2000/svg"
 width="48.000000pt" height="48.000000pt" viewBox="0 0 48.000000 48.000000"
 preserveAspectRatio="xMidYMid meet">
<metadata>
Created by potrace 1.15, written by Peter Selinger 2001-2017
</metadata>
<g transform="translate(0.000000,48.000000) scale(0.100000,-0.100000)"
fill="#000000" stroke="none">
<path d="M127 469 c-15 -9 -18 -18 -12 -46 9 -48 -8 -66 -56 -58 -31 5 -39 3
-48 -14 -18 -33 -13 -53 21 -83 l33 -28 -33 -28 c-34 -30 -39 -50 -21 -83 9
-17 17 -19 48 -14 48 8 65 -10 56 -58 -6 -29 -3 -37 13 -46 34 -18 54 -13 84
22 l28 32 28 -32 c30 -35 50 -40 84 -22 16 9 19 17 13 46 -9 48 8 66 56 58 31
-5 39 -3 48 14 18 33 13 53 -21 83 l-33 28 33 28 c34 30 39 50 21 83 -9 17
-17 19 -48 14 -48 -8 -65 10 -56 58 6 29 3 37 -13 46 -34 18 -54 13 -84 -21
l-28 -33 -28 33 c-29 33 -54 39 -85 21z m181 -119 c34 -21 62 -72 62 -113 0
-36 -40 -90 -84 -111 -32 -16 -44 -17 -76 -7 -42 12 -86 58 -97 99 -3 14 0 44
8 66 27 77 117 109 187 66z"/>
<path d="M207 313 c-24 -6 -50 -59 -41 -86 12 -39 35 -57 74 -57 60 0 93 55
66 108 -19 36 -51 47 -99 35z"/>
</g>
</svg>
