<?xml version="1.0" standalone="no"?>
<!DOCTYPE svg PUBLIC "-//W3C//DTD SVG 20010904//EN"
 "http://www.w3.org/TR/2001/REC-SVG-20010904/DTD/svg10.dtd">
<svg version="1.0" xmlns="http://www.w3.org/2000/svg"
 width="48.000000pt" height="48.000000pt" viewBox="0 0 48.000000 48.000000"
 preserveAspectRatio="xMidYMid meet">
<metadata>
Created by potrace 1.15, written by Peter Selinger 2001-2017
</metadata>
<g transform="translate(0.000000,48.000000) scale(0.100000,-0.100000)"
fill="#000000" stroke="none">
<path d="M226 430 c-8 -58 -17 -67 -41 -40 -30 33 -38 24 -33 -39 4 -54 3 -59
-13 -50 -29 15 -32 11 -27 -51 4 -57 -3 -78 -16 -45 -3 8 -10 15 -16 15 -13 0
-13 -82 1 -140 15 -64 33 -80 91 -80 56 0 63 14 14 30 -20 6 -36 19 -39 31 -4
16 -3 18 9 8 12 -9 14 -5 14 24 0 44 17 58 26 20 12 -56 18 -57 24 -3 6 54 6
54 18 27 7 -16 12 -38 13 -50 1 -15 4 -11 11 13 6 19 15 48 21 64 9 26 12 27
18 10 4 -10 5 -37 2 -59 -6 -36 -5 -39 10 -26 15 12 17 11 17 -4 0 -10 -16
-33 -36 -51 l-35 -34 46 0 c57 0 80 12 100 50 22 43 18 172 -8 230 l-19 45
-11 -35 -11 -35 -6 54 c-4 40 -12 58 -30 73 -13 11 -32 37 -41 59 -25 55 -45
51 -53 -11z"/>
</g>
</svg>
